<?xml version="1.0" encoding="UTF-8" standalone="no"?>
<!-- Created with Inkscape (http://www.inkscape.org/) -->

<svg
   xmlns:dc="http://purl.org/dc/elements/1.1/"
   xmlns:cc="http://creativecommons.org/ns#"
   xmlns:rdf="http://www.w3.org/1999/02/22-rdf-syntax-ns#"
   xmlns:svg="http://www.w3.org/2000/svg"
   xmlns="http://www.w3.org/2000/svg"
   xmlns:sodipodi="http://sodipodi.sourceforge.net/DTD/sodipodi-0.dtd"
   xmlns:inkscape="http://www.inkscape.org/namespaces/inkscape"
   id="svg2985"
   version="1.1"
   inkscape:version="0.48.5 r10040"
   width="1704"
   height="939"
   sodipodi:docname="elgg no shadow.svg">
  <metadata
     id="metadata2991">
    <rdf:RDF>
      <cc:Work
         rdf:about="">
        <dc:format>image/svg+xml</dc:format>
        <dc:type
           rdf:resource="http://purl.org/dc/dcmitype/StillImage" />
      </cc:Work>
    </rdf:RDF>
  </metadata>
  <defs
     id="defs2989" />
  <sodipodi:namedview
     pagecolor="#ff28ff"
     bordercolor="#666666"
     borderopacity="1"
     objecttolerance="10"
     gridtolerance="10"
     guidetolerance="10"
     inkscape:pageopacity="0.59607843"
     inkscape:pageshadow="2"
     inkscape:window-width="1920"
     inkscape:window-height="1027"
     id="namedview2987"
     showgrid="false"
     inkscape:zoom="0.5"
     inkscape:cx="1052.9954"
     inkscape:cy="499.43319"
     inkscape:window-x="1912"
     inkscape:window-y="816"
     inkscape:window-maximized="1"
     inkscape:current-layer="g3182" />
  <g
     id="g3182">
    <g
       transform="translate(966.20379,113.50596)"
       id="g8805">
      <path
         transform="matrix(0.99268465,0,0,0.99268465,7.6442922,-0.04821586)"
         d="m 652.20341,155.59322 c 0,26.21012 -21.2475,47.45762 -47.45762,47.45762 -26.21012,0 -47.45763,-21.2475 -47.45763,-47.45762 0,-26.21013 21.24751,-47.45763 47.45763,-47.45763 26.21012,0 47.45762,21.2475 47.45762,47.45763 z"
         sodipodi:ry="47.457626"
         sodipodi:rx="47.457626"
         sodipodi:cy="155.59322"
         sodipodi:cx="604.74579"
         id="path8024"
         style="fill:none;stroke:#cecece;stroke-width:9.15295696;stroke-miterlimit:4;stroke-opacity:1;stroke-dasharray:none"
         sodipodi:type="arc" />
      <text
         sodipodi:linespacing="160%"
         id="text8018"
         y="174.91525"
         x="587.45471"
         style="font-size:57.28489685px;font-style:normal;font-variant:normal;font-weight:bold;font-stretch:normal;line-height:160.00000238%;letter-spacing:0px;word-spacing:0px;fill:#cecece;fill-opacity:1;stroke:none;font-family:Arial;-inkscape-font-specification:Arial Bold"
         xml:space="preserve"><tspan
           style="font-style:normal;font-variant:normal;font-weight:bold;font-stretch:normal;line-height:160.00000238%;fill:#cecece;fill-opacity:1;font-family:Arial;-inkscape-font-specification:Arial Bold"
           y="174.91525"
           x="587.45471"
           id="tspan8020"
           sodipodi:role="line">R</tspan></text>
    </g>
    <path
       sodipodi:type="arc"
       style="opacity:1;fill:#4ce1ff;fill-opacity:1;stroke:#4c4c4c;stroke-width:16.08458518999999900;stroke-linecap:square;stroke-linejoin:bevel;stroke-miterlimit:4;stroke-opacity:1;stroke-dasharray:none"
       id="path10920"
       sodipodi:cx="610.42371"
       sodipodi:cy="448.89832"
       sodipodi:rx="45"
       sodipodi:ry="45"
       d="m 655.42371,448.89832 a 45,45 0 1 1 -90,0 45,45 0 1 1 90,0 z"
       transform="matrix(1.2127257,0,0,1.2127257,836.5716,50.602025)" />
    <path
       style="fill:#4c4c4c"
       d="m 814,839.95558 c -30.87231,-2.31997 -59.46169,-10.47831 -88.47352,-25.24704 -35.8529,-18.25124 -51.67275,-37.19076 -53.26859,-63.77315 -1.68504,-28.06843 14.68254,-54.46707 40.51059,-65.33794 19.61983,-8.25788 40.62838,-5.30819 65.20358,9.15484 20.57899,12.11119 31.37973,15.40528 51.02794,15.56289 11.13775,0.0893 15.16232,-0.30795 23,-2.27053 32.43006,-8.12056 57.91194,-28.37683 68.64143,-54.56503 l 2.05688,-5.02038 -9.28956,4.78989 C 901.7363,659.2677 888.05621,663.55462 872,666.22537 c -15.61325,2.59707 -56.89239,3.12362 -71.5,0.91204 -66.74263,-10.10476 -124.95576,-47.44097 -161.14286,-103.35235 -3.66119,-5.65678 -8.79669,-14.65802 -11.41222,-20.00275 l -4.75551,-9.71768 -0.4475,40.21768 c -0.41739,37.51229 -0.59143,40.68983 -2.58723,47.23635 -6.39522,20.97726 -21.0496,36.23971 -41.87938,43.61713 -8.25937,2.92527 -25.59158,3.66782 -34.2753,1.46842 -22.90388,-5.80104 -40.17644,-22.20859 -47.12103,-44.7612 -2.08547,-6.77258 -2.30454,-9.84548 -2.82005,-39.55647 L 493.5,550.07308 l -5.83181,9.52925 c -26.0172,42.51239 -64.83623,75.64469 -109.16819,93.17576 -27.76408,10.97931 -51.42648,15.2518 -84.5,15.25734 -21.38508,0.004 -36.08197,-1.7341 -55,-6.50292 C 182.22486,647.22073 132.60305,610.41469 101.42331,559.48759 58.955908,490.12392 57.964805,401.53633 98.855839,330 117.41733,297.52782 143.77211,269.93779 175.05486,250.2295 225.1941,218.64154 287.48308,208.83552 347.5,223.08182 c 42.12848,10.0001 81.14307,32.87018 111.42695,65.31772 10.81634,11.58912 24.57883,29.71565 30.75614,40.50882 l 4.24006,7.40836 0.32952,-119.40836 L 494.58218,97.5 496.87237,90.636547 C 503.8872,69.613894 518.89198,54.561873 540,47.373131 544.2656,45.920399 548.41768,45.5 558.5,45.5 c 10.08232,0 14.2344,0.420399 18.5,1.873131 21.24432,7.235161 36.53989,22.799544 43.17401,43.932786 l 2.25836,7.194083 0.53381,127.48653 0.53382,127.48653 2.88161,-6.78145 C 630.3217,337.41918 641.13205,319.46226 649.67457,308 685.59871,259.79741 736.64523,229.20314 797.5,219.40218 c 13.75492,-2.21529 48.61835,-2.53013 62,-0.55988 76.95765,11.33083 140.9091,56.74631 174.365,123.82633 4.7374,9.49871 12.104,28.15007 13.7149,34.72504 0.6233,2.54388 1.2344,1.39553 5.055,-9.5 24.9119,-71.04203 84.7795,-125.7697 157.3651,-143.85462 20.6862,-5.15402 31.4983,-6.42009 55,-6.44038 22.9577,-0.0198 33.5967,1.14815 53.2209,5.84266 81.2136,19.428 146.1361,82.5891 166.374,161.86027 6.8977,27.01769 6.7045,23.5833 7.1534,127.1984 0.4404,101.68071 -0.095,119.64623 -4.2598,142.96446 -12.0645,67.5455 -51.9469,122.87218 -112.9885,156.74269 -37.8829,21.02031 -80.9049,30.72467 -123.0942,27.766 -33.0689,-2.31907 -65.4822,-11.28427 -92.2718,-25.52146 -37.8362,-20.10785 -53.3605,-41.36028 -51.8281,-70.95169 1.6928,-32.69036 27.1836,-59.93689 58.1941,-62.2023 15.2076,-1.11096 29.4897,2.92258 47.1494,13.31584 20.6888,12.17602 31.7036,15.54404 51.3506,15.70164 15.6985,0.12593 26.6286,-2.09055 41.1264,-8.33992 24.078,-10.37898 40.5528,-26.15159 50.2599,-48.11794 l 2.4936,-5.64269 -9.3159,4.90431 c -18.8957,9.94762 -41.6282,14.70214 -74.564,15.59512 -23.4873,0.6368 -39.2971,-0.88543 -59.5,-5.72891 C 1148.0474,647.0537 1091.7559,602.52147 1062.3613,542.6281 L 1057,531.70407 l -0.015,40.89796 c -0.01,22.49389 -0.4572,47.42297 -0.9979,55.39797 -5.3986,79.63342 -46.4289,144.92282 -115.4873,183.76921 -37.81444,21.2712 -83.3892,31.42604 -126.5,28.18637 z m 54.01185,-30.98932 C 942.44403,793.57622 1001.4433,739.66549 1021.1892,669 c 6.2543,-22.38257 6.7706,-27.89845 7.9082,-84.5 0.5748,-28.6 0.8269,-76.525 0.5602,-106.5 -0.5289,-59.43507 -0.9586,-64.65208 -7.2182,-87.62915 C 1005.6088,328.59144 959.1734,278.85008 897.48417,256.51949 854.48035,240.95275 805.27004,240.9353 763.44649,256.47199 734.40978,267.2586 712.64178,281.20617 690.94076,302.9291 652.7185,341.18996 632.7404,389.68246 632.82191,444 c 0.11432,76.17965 41.54353,142.44505 110.24879,176.34126 33.41934,16.48766 67.99274,23.2999 104.9293,20.67494 33.30977,-2.36722 54.29365,-9.63691 66.35599,-22.98848 5.98452,-6.62414 7.94903,-12.09097 7.91571,-22.02772 -0.0244,-7.26453 -0.46034,-9.44477 -2.99949,-15 -4.98967,-10.91652 -11.57163,-16.99604 -22.17909,-20.48602 -6.85589,-2.25567 -16.18302,-1.59688 -28.09312,1.98425 -12.97212,3.90046 -24.00833,5.50217 -37.88099,5.49775 -32.84088,-0.0105 -61.18945,-10.75668 -84.44497,-32.01091 -8.6647,-7.91905 -21.05413,-24.77519 -27.06516,-36.82285 C 704.57332,469.02704 701.97016,436.08573 712.16781,405 c 9.92975,-30.26911 29.59177,-55.32506 55.29454,-70.46367 19.4883,-11.47835 38.75274,-16.52994 63.03765,-16.52994 31.10676,0 55.71654,8.67665 79.96979,28.1949 22.62228,18.20569 41.29831,53.14821 44.58152,83.41124 0.71462,6.58705 0.9551,42.26588 0.72044,106.88747 l -0.35225,97 -3.29631,12.39359 c -9.27251,34.86311 -29.02786,59.94049 -60.34299,76.5992 -13.87329,7.38017 -32.34566,13.25065 -47.2802,15.02553 -11.02363,1.31009 -27.96877,0.62781 -38.69474,-1.55801 -13.50583,-2.75231 -21.88976,-6.12148 -39.05173,-15.69333 -18.28521,-10.19832 -21.47895,-11.4049 -30.1969,-11.40821 -13.80752,-0.005 -24.60193,6.55174 -31.85734,19.35149 -3.60901,6.3669 -4.97747,12.74527 -4.50058,20.97722 0.74088,12.78905 6.77245,21.67407 21.25492,31.31038 20.20632,13.44482 48.55827,24.74871 73.04637,29.12349 14.79035,2.64229 24.09694,3.25998 42.01185,2.78839 13.7715,-0.36253 19.77149,-1.01843 31.5,-3.44348 z m 434.80325,0.009 c 74.8678,-15.36334 134.0849,-69.88956 153.6793,-141.5056 6.6205,-24.19761 6.5443,-22.92712 7.5021,-124.97011 0.8849,-94.27982 0.5038,-114.54899 -2.5004,-133 -7.3153,-44.92878 -30.1731,-85.51042 -64.9961,-115.39397 -50.3089,-43.17292 -115.649,-59.04344 -179,-43.47749 -69.9153,17.17886 -126.2502,73.52381 -143.9176,143.94309 -4.3056,17.16144 -5.7697,29.50648 -5.803,48.92837 -0.034,20.09919 1.5599,33.12675 6.2461,51.03756 14.3239,54.74583 51.847,100.10174 104.2147,125.96903 32.7443,16.17423 67.8004,23.02906 104.7598,20.48461 49.0539,-3.37709 74.8839,-19.18494 74.3328,-45.4912 -0.3382,-16.14632 -10.4857,-30.0686 -25.5671,-35.07782 -6.6852,-2.22046 -15.2221,-1.51081 -28.9838,2.40935 -13.7537,3.91787 -22.985,5.16924 -38.1043,5.16528 -47.6352,-0.0125 -88.3102,-25.39451 -109.9996,-68.6419 -21.1215,-42.11499 -17.7646,-88.54759 9.3181,-128.89021 6.6229,-9.86547 22.1448,-25.43279 31.6392,-31.73189 20.9319,-13.88723 39.1154,-19.56228 65.5042,-20.44374 18.0252,-0.60209 29.6111,0.91617 44.3605,5.81314 24.1389,8.01441 42.8785,21.65256 59.0464,42.97227 13.6787,18.03742 23.1744,41.54249 25.4209,62.92552 1.257,11.96454 1.3085,182.69694 0.059,196.53965 -1.9286,21.37093 -9.3551,42.47258 -20.7155,58.8605 -16.5014,23.80409 -42.8462,41.23604 -74.0119,48.97253 -12.5747,3.12154 -19.2304,3.88323 -32.7993,3.75365 -23.271,-0.22223 -40.0163,-5.36952 -64.1992,-19.7339 -19.2179,-11.41532 -32.5262,-12.58797 -46.0404,-4.05683 -11.9661,7.55391 -19.3553,23.84872 -17.1476,37.81457 1.7672,11.17908 8.3867,19.79527 22.1984,28.89435 21.2668,14.01038 47.82,24.30032 74.6842,28.94174 15.4273,2.66543 18.6706,2.8661 38.8197,2.40184 14.2616,-0.3286 19.9049,-0.93039 32,-3.41239 z M 314.5,639.55602 c 54.42178,-5.01228 102.4062,-31.87641 137.37435,-76.90916 25.50276,-32.84301 43.38895,-81.63182 36.76404,-100.28261 -2.21268,-6.22925 -6.02546,-11.73222 -10.82682,-15.62627 C 465.47633,436.73371 450.70109,434.62025 438,441.04332 c -10.6943,5.40821 -16.74056,14.61595 -22.60324,34.42207 -11.75216,39.70279 -37.09914,68.11848 -74.39676,83.40385 -20.80837,8.52772 -48.41444,10.87135 -72.80815,6.18109 -7.90118,-1.51919 -22.15031,-6.50355 -30.40335,-10.63513 -35.87064,-17.9573 -62.99315,-58.33365 -67.1173,-99.9152 -3.85173,-38.83486 11.17922,-77.7179 40.67828,-105.22924 16.45941,-15.35033 38.6796,-26.29472 61.65052,-30.3655 15.2894,-2.7095 39.06229,-1.50666 55,2.78283 17.58404,4.73259 38.1685,15.46592 46.45,24.22038 3.56844,3.77224 4.01111,9.10103 1,12.03789 -1.0725,1.04605 -34.35,18.87603 -73.95,39.62218 -39.6,20.74615 -74.35584,39.26963 -77.23521,41.16329 -18.16933,11.94933 -20.39402,36.09841 -4.74662,51.52478 7.30211,7.19896 12.4024,9.24339 23.05975,9.24339 9.03952,0 9.12413,-0.0235 20,-5.56085 14.07915,-7.16824 192.54568,-100.96572 202.40329,-106.37803 9.93687,-5.45583 12.22622,-9.16014 11.78021,-19.06112 -0.28886,-6.41228 -0.80912,-7.88158 -6.19655,-17.5 -12.36725,-22.07982 -28.80789,-42.25408 -48.42986,-59.4281 -43.11174,-37.73333 -100.89999,-54.08445 -159.22428,-45.05235 -84.62809,13.10551 -149.77773,79.24967 -164.512096,167.0234 -2.33798,13.92752 -2.342677,43.28849 -0.0093,57.95705 6.878306,43.23932 25.609016,80.23361 56.174046,110.94716 33.7359,33.89982 75.63848,53.24325 125.43659,57.90511 8.27611,0.77477 20.5074,0.49248 34.5,-0.79625 z m 258.23546,-2.05521 c 7.36053,-3.34161 11.6519,-6.87076 15.61439,-12.84099 C 595.56537,613.78829 595,636.5861 595,356.5 595,76.679506 595.5507,99.147574 588.43122,88.5 574.26044,67.306817 543.08435,67.204872 528.60263,88.304362 521.47247,98.692812 522.02165,76.312172 522.02165,356.5 c 0,278.22904 -0.47226,257.44759 6.08268,267.66258 9.39472,14.64041 28.91375,20.47376 44.63113,13.33823 z M 928.05813,435 c -2.47391,-23.1387 -11.07432,-42.2198 -26.43727,-58.65447 -8.76015,-9.37125 -16.64044,-15.37165 -27.12086,-20.65101 -14.37352,-7.24044 -26.39853,-9.96307 -44,-9.96219 -22.54996,0.001 -40.64149,5.75758 -57.28033,18.22571 -9.18083,6.87956 -13.26266,11.09975 -20.07091,20.75125 -28.98502,41.08966 -25.53091,91.16298 8.73857,126.68066 18.53115,19.20611 41.30799,28.81199 68.61267,28.93664 12.71722,0.0581 17.41395,-0.68879 35,-5.56552 22.89506,-6.34894 42.53869,-3.32509 59,9.08221 l 4,3.0149 0.28692,-51.17909 C 928.95478,465.73762 928.65236,440.55782 928.05813,435 z m 434.97357,1.31858 c -2.387,-25.25582 -12.9488,-47.4866 -30.467,-64.12712 -9.215,-8.75337 -14.505,-12.36138 -25.8865,-17.65587 -11.3123,-5.2623 -18.3709,-7.20762 -30.8471,-8.50128 -9.0597,-0.93942 -24.8804,-0.16135 -31.8311,1.56545 -12.8888,3.20205 -21.7444,6.9016 -31.415,13.124 -30.0544,19.33806 -49.2056,62.30143 -43.2054,96.92591 9.6252,55.54231 60.446,91.55013 114.6204,81.2114 3.025,-0.57729 10.45,-2.42229 16.5,-4.1 22.9812,-6.37283 43.4645,-3.16963 59,9.22648 l 4,3.19168 0.2942,-49.83961 c 0.1757,-29.76709 -0.1314,-54.34285 -0.7625,-61.02104 z M 317,537.46668 c 9.8953,-2.26899 22.97896,-7.9695 31.89358,-13.89593 14.09942,-9.37328 28.6563,-26.33677 34.38591,-40.07075 2.88851,-6.92378 8.74138,-25.5 8.03438,-25.5 -0.50316,0 -21.11385,10.78044 -81.81387,42.79282 -40.17284,21.18661 -47.56289,24.61555 -55.36381,25.68845 -2.82368,0.38835 -5.34019,1.03979 -5.59224,1.44763 -0.99882,1.61611 16.33427,8.28509 25.95605,9.98669 3.3,0.58361 7.125,1.26054 8.5,1.5043 5.2516,0.93101 26.82702,-0.30845 34,-1.95321 z M 212.5,413.31345 c 4.17237,-2.5867 97.28707,-51.69235 112.84773,-59.5122 l 4.84773,-2.43618 -7.70987,-2.2402 c -51.9622,-15.09825 -104.83348,13.6529 -120.81278,65.6974 l -2.55519,8.32228 4.19119,-3.36565 c 2.30515,-1.85111 6.44119,-4.76056 9.19119,-6.46545 z"
       id="gray-stroke"
       inkscape:connector-curvature="0"
       sodipodi:nodetypes="cssssssscssssscsssssscsscssssssscccssssscccssssscsssssssssssssssscssssccssccssssssssssssssssssssssssscssssscsssssscsssssscsssssssssssssscssssssssscccssssssssssssssssssssssssssssccsssssssssssssssssscsscssssssssscscsssssscssssscsscss" />
    <path
       style="fill:#ffffff"
       d="m 558.625,72.53125 c -11.37559,-0.0372 -22.79039,5.231505 -30.03125,15.78125 -7.13016,10.38845 -6.5625,-12.000328 -6.5625,268.1875 0,278.22904 -0.49244,257.44126 6.0625,267.65625 9.39472,14.64041 28.93887,20.47928 44.65625,13.34375 7.36053,-3.34161 11.63126,-6.87352 15.59375,-12.84375 C 595.55927,613.78472 595,636.5861 595,356.5 595,76.679506 595.55698,99.147574 588.4375,88.5 581.35211,77.903408 570.00059,72.568448 558.625,72.53125 z m -263.0625,171.5625 c -10.8049,-0.0649 -21.72045,0.74398 -32.65625,2.4375 -84.62809,13.10551 -149.76563,79.22627 -164.5,167 -2.33798,13.92752 -2.364627,43.30019 -0.03125,57.96875 6.87831,43.23932 25.62247,80.22395 56.1875,110.9375 33.7359,33.89982 75.63939,53.24439 125.4375,57.90625 8.27611,0.77477 20.5074,0.50748 34.5,-0.78125 54.42178,-5.01228 102.40685,-31.8735 137.375,-76.90625 25.50276,-32.84301 43.37491,-81.63046 36.75,-100.28125 -2.21268,-6.22925 -6.01114,-11.73095 -10.8125,-15.625 -12.33524,-10.00427 -27.11141,-12.14182 -39.8125,-5.71875 -10.6943,5.40821 -16.73107,14.63138 -22.59375,34.4375 C 403.65409,515.17154 378.29762,543.58963 341,558.875 c -20.80837,8.52772 -48.41879,10.87776 -72.8125,6.1875 -7.90118,-1.51919 -22.15321,-6.52467 -30.40625,-10.65625 -35.87064,-17.9573 -63.00085,-58.3247 -67.125,-99.90625 -3.85173,-38.83486 11.18844,-77.70741 40.6875,-105.21875 16.45941,-15.35033 38.68533,-26.30422 61.65625,-30.375 15.2894,-2.7095 39.06229,-1.50824 55,2.78125 17.58404,4.73259 38.156,15.46429 46.4375,24.21875 3.56844,3.77224 4.01111,9.09439 1,12.03125 -1.0725,1.04605 -34.3375,18.87885 -73.9375,39.625 -39.6,20.74615 -74.37063,39.26259 -77.25,41.15625 -18.16933,11.94933 -20.36615,36.10488 -4.71875,51.53125 7.30211,7.19896 12.3739,9.25 23.03125,9.25 9.03952,0 9.12413,-0.0251 20,-5.5625 14.07915,-7.16824 192.54864,-100.96269 202.40625,-106.375 9.93687,-5.45583 12.22726,-9.16152 11.78125,-19.0625 -0.28886,-6.41228 -0.80007,-7.88158 -6.1875,-17.5 -12.36725,-22.07982 -28.81553,-42.26348 -48.4375,-59.4375 -35.02829,-30.65833 -79.74125,-47.18767 -126.5625,-47.46875 z m 969.5625,0.6875 c -15.8204,0.0265 -31.7872,1.95226 -47.625,5.84375 -69.9153,17.17886 -126.2388,73.51822 -143.9062,143.9375 -4.3056,17.16144 -5.7792,29.51561 -5.8126,48.9375 -0.034,20.09919 1.5638,33.12044 6.25,51.03125 14.324,54.74583 51.8511,100.10146 104.2188,125.96875 32.7443,16.17423 67.7906,23.04445 104.75,20.5 49.0539,-3.37709 74.8949,-19.19374 74.3438,-45.5 -0.3382,-16.14632 -10.4811,-30.08453 -25.5626,-35.09375 -6.6851,-2.22046 -15.2382,-1.48266 -29,2.4375 -13.7536,3.91787 -22.9744,5.16021 -38.0937,5.15625 -47.6352,-0.0125 -88.3106,-25.40886 -110,-68.65625 -21.1215,-42.11499 -17.7702,-88.53238 9.3125,-128.875 6.6229,-9.86547 22.1306,-25.4509 31.625,-31.75 20.9319,-13.88723 39.1112,-19.55604 65.5,-20.4375 18.0252,-0.60209 29.6256,0.91553 44.375,5.8125 24.1389,8.01441 42.8634,21.64904 59.0312,42.96875 13.6787,18.03742 23.1911,41.55447 25.4376,62.9375 1.257,11.96454 1.312,182.68854 0.062,196.53125 -1.9285,21.37093 -9.3583,42.48708 -20.7187,58.875 -16.5014,23.80409 -42.8343,41.23226 -74,48.96875 -12.5747,3.12154 -19.2436,3.87958 -32.8125,3.75 -23.271,-0.22223 -40.0046,-5.35437 -64.1875,-19.71875 -19.2179,-11.41532 -32.5483,-12.59364 -46.0625,-4.0625 -11.9661,7.55391 -19.3327,23.84665 -17.125,37.8125 1.7672,11.17908 8.3758,19.77592 22.1875,28.875 21.2668,14.01038 47.8233,24.32733 74.6875,28.96875 15.4273,2.66543 18.6634,2.83926 38.8125,2.375 14.2616,-0.3286 19.9049,-0.92425 32,-3.40625 74.8678,-15.36334 134.0931,-69.88396 153.6875,-141.5 6.6205,-24.19761 6.5422,-22.92576 7.5,-124.96875 0.8849,-94.27982 0.5042,-114.54899 -2.5,-133 -7.3153,-44.92878 -30.177,-85.5227 -65,-115.40625 -37.7317,-32.37969 -83.9137,-49.39207 -131.375,-49.3125 z m -435.09375,0.0625 c -22.906,-0.008 -45.68197,3.85665 -66.59375,11.625 -29.03671,10.78661 -50.79898,24.74582 -72.5,46.46875 -38.22226,38.26086 -58.20651,86.74496 -58.125,141.0625 0.11432,76.17965 41.54474,142.44754 110.25,176.34375 33.41934,16.48766 68.00094,23.31246 104.9375,20.6875 33.30977,-2.36722 54.28141,-9.64843 66.34375,-23 5.98452,-6.62414 7.97082,-12.0945 7.9375,-22.03125 -0.0244,-7.26453 -0.46085,-9.44477 -3,-15 -4.98967,-10.91652 -11.58004,-17.01002 -22.1875,-20.5 -6.85589,-2.25567 -16.18365,-1.58113 -28.09375,2 -12.97212,3.90046 -24.00234,5.50442 -37.875,5.5 -32.84088,-0.0105 -61.18198,-10.74577 -84.4375,-32 -8.6647,-7.91905 -21.08272,-24.79609 -27.09375,-36.84375 C 704.55819,469.02107 701.9586,436.08573 712.15625,405 722.086,374.73089 741.76598,349.66986 767.46875,334.53125 786.95705,323.0529 806.21509,318 830.5,318 c 31.10676,0 55.7155,8.66925 79.96875,28.1875 22.62228,18.20569 41.31054,53.17447 44.59375,83.4375 0.71462,6.58705 0.95341,42.25341 0.71875,106.875 l -0.375,97 -3.28125,12.40625 c -9.27251,34.86311 -29.02862,59.93504 -60.34375,76.59375 -13.87329,7.38017 -32.34671,13.25637 -47.28125,15.03125 -11.02363,1.31009 -27.96153,0.62332 -38.6875,-1.5625 -13.50583,-2.75231 -21.90053,-6.11565 -39.0625,-15.6875 -18.28521,-10.19832 -21.46955,-11.43419 -30.1875,-11.4375 -13.80752,-0.005 -24.61959,6.57525 -31.875,19.375 -3.60901,6.3669 -4.97689,12.7368 -4.5,20.96875 0.74088,12.78905 6.79878,21.67619 21.28125,31.3125 20.20632,13.44482 48.54315,24.75022 73.03125,29.125 14.79035,2.64229 24.08509,3.25284 42,2.78125 13.7715,-0.36253 19.77149,-1.01245 31.5,-3.4375 74.43218,-15.39004 133.4416,-69.30326 153.1875,-139.96875 6.2543,-22.38257 6.7686,-27.89845 7.9063,-84.5 0.5748,-28.6 0.8292,-76.525 0.5624,-106.5 -0.5289,-59.43507 -0.9591,-64.64793 -7.2187,-87.625 -16.8306,-61.77941 -63.27952,-111.51316 -124.96875,-133.84375 -21.50191,-7.78337 -44.5315,-11.67938 -67.4375,-11.6875 z"
       id="path3278"
       inkscape:connector-curvature="0"
       sodipodi:nodetypes="ssssssssssssssssssssssssssssssssssssssssssscsssssssssssssscsssssssssssssssssssssssssssssssssscccsssscssssssssssss" />
  </g>
</svg>
